<svg xmlns="http://www.w3.org/2000/svg" width="1007" height="675"><rect width="148" height="108" x="148" y="14" style="fill:#fff;stroke:#fff;stroke-width:1"/><rect width="147" height="107" x="148" y="14" style="fill:#fff;stroke:#000;stroke-width:1"/><line x1="149" x2="296" y1="122" y2="122" style="fill:#1a1a1a;stroke:#1a1a1a;stroke-width:1"/><line x1="296" x2="296" y1="15" y2="121" style="fill:#1a1a1a;stroke:#1a1a1a;stroke-width:1"/><rect width="148" height="19" x="148" y="14" style="fill:#fff;stroke:#fff;stroke-width:1"/><rect width="147" height="18" x="148" y="14" style="fill:#fff;stroke:#000;stroke-width:1"/><text x="189" y="29" style="font-family:Dialog;font-size:10">&lt;&lt;Interface&gt;&gt;</text><rect width="148" height="21" x="148" y="32" style="fill:#fff;stroke:#fff;stroke-width:1"/><rect width="147" height="20" x="148" y="32" style="fill:#fff;stroke:#000;stroke-width:1"/><text x="187" y="47" style="font-family:Dialog;font-size:10">FigureElement</text><rect width="146" height="2" x="149" y="32" style="fill:#fff;stroke:#fff;stroke-width:1"/><rect width="145" height="1" x="149" y="32" style="fill:#fff;stroke:#fff;stroke-width:1"/><rect width="148" height="70" x="148" y="52" style="fill:#fff;stroke:#fff;stroke-width:1"/><rect width="147" height="69" x="148" y="52" style="fill:#fff;stroke:#000;stroke-width:1"/><text x="150" y="68" style="font-family:Dialog;font-size:10;font-style:italic">move(dx: int,dy: int) : void</text><text x="150" y="85" style="font-family:Dialog;font-size:10;font-style:italic">getBounds() : Rectangle</text><text x="150" y="102" style="font-family:Dialog;font-size:10;font-style:italic">contains(p: Point2D) : boolean</text><text x="150" y="119" style="font-family:Dialog;font-size:10;font-style:italic">paint(g2: Graphics2D) : void</text><rect width="148" height="159" x="14" y="202" style="fill:#fff;stroke:#fff;stroke-width:1"/><rect width="147" height="158" x="14" y="202" style="fill:#fff;stroke:#000;stroke-width:1"/><line x1="15" x2="162" y1="361" y2="361" style="fill:#1a1a1a;stroke:#1a1a1a;stroke-width:1"/><line x1="162" x2="162" y1="203" y2="360" style="fill:#1a1a1a;stroke:#1a1a1a;stroke-width:1"/><rect width="148" height="21" x="14" y="202" style="fill:#fff;stroke:#fff;stroke-width:1"/><rect width="147" height="20" x="14" y="202" style="fill:#fff;stroke:#000;stroke-width:1"/><text x="38" y="217" style="font-family:Dialog;font-size:10;font-style:italic">ShapeFigureElement</text><rect width="148" height="18" x="14" y="222" style="fill:#fff;stroke:#fff;stroke-width:1"/><rect width="147" height="17" x="14" y="222" style="fill:#fff;stroke:#000;stroke-width:1"/><rect width="148" height="122" x="14" y="239" style="fill:#fff;stroke:#fff;stroke-width:1"/><rect width="147" height="121" x="14" y="239" style="fill:#fff;stroke:#000;stroke-width:1"/><text x="16" y="255" style="font-family:Dialog;font-size:10;font-style:italic">move(dx: int,dy: int) : void</text><text x="16" y="272" style="font-family:Dialog;font-size:10;font-style:italic">getShape() : Shape</text><text x="16" y="289" style="font-family:Dialog;font-size:10">getBounds() : Rectangle</text><text x="16" y="306" style="font-family:Dialog;font-size:10">contains(p: Point2D) : boolean</text><text x="16" y="323" style="font-family:Dialog;font-size:10">getLineColor() : Color</text><text x="16" y="340" style="font-family:Dialog;font-size:10">getFillColor() : Color</text><text x="16" y="357" style="font-family:Dialog;font-size:10">paint(g2: Graphics2D) : void</text><rect width="188" height="192" x="242" y="202" style="fill:#fff;stroke:#fff;stroke-width:1"/><rect width="187" height="191" x="242" y="202" style="fill:#fff;stroke:#000;stroke-width:1"/><line x1="243" x2="430" y1="394" y2="394" style="fill:#1a1a1a;stroke:#1a1a1a;stroke-width:1"/><line x1="430" x2="430" y1="203" y2="393" style="fill:#1a1a1a;stroke:#1a1a1a;stroke-width:1"/><rect width="188" height="21" x="242" y="202" style="fill:#fff;stroke:#fff;stroke-width:1"/><rect width="187" height="20" x="242" y="202" style="fill:#fff;stroke:#000;stroke-width:1"/><text x="321" y="217" style="font-family:Dialog;font-size:10">Group</text><rect width="188" height="172" x="242" y="222" style="fill:#fff;stroke:#fff;stroke-width:1"/><rect width="187" height="171" x="242" y="222" style="fill:#fff;stroke:#000;stroke-width:1"/><text x="244" y="238" style="font-family:Dialog;font-size:10">&lt;&lt;create&gt;&gt; Group(first: FigureElement)</text><text x="244" y="255" style="font-family:Dialog;font-size:10">add(fe: FigureElement) : void</text><text x="244" y="272" style="font-family:Dialog;font-size:10">members() : Iterator</text><text x="244" y="289" style="font-family:Dialog;font-size:10">move(dx: int,dy: int) : void</text><text x="244" y="306" style="font-family:Dialog;font-size:10">setIdentifier(identifier: String) : void</text><text x="244" y="323" style="font-family:Dialog;font-size:10">toString() : String</text><text x="244" y="340" style="font-family:Dialog;font-size:10">getBounds() : Rectangle</text><text x="244" y="357" style="font-family:Dialog;font-size:10">contains(p: Point2D) : boolean</text><text x="244" y="374" style="font-family:Dialog;font-size:10">paint(g2: Graphics2D) : void</text><text x="244" y="391" style="font-family:Dialog;font-size:10">size() : int</text><rect width="141" height="158" x="14" y="490" style="fill:#fff;stroke:#fff;stroke-width:1"/><rect width="140" height="157" x="14" y="490" style="fill:#fff;stroke:#000;stroke-width:1"/><line x1="15" x2="155" y1="648" y2="648" style="fill:#1a1a1a;stroke:#1a1a1a;stroke-width:1"/><line x1="155" x2="155" y1="491" y2="647" style="fill:#1a1a1a;stroke:#1a1a1a;stroke-width:1"/><rect width="141" height="21" x="14" y="490" style="fill:#fff;stroke:#fff;stroke-width:1"/><rect width="140" height="20" x="14" y="490" style="fill:#fff;stroke:#000;stroke-width:1"/><text x="72" y="505" style="font-family:Dialog;font-size:10">Point</text><rect width="141" height="138" x="14" y="510" style="fill:#fff;stroke:#fff;stroke-width:1"/><rect width="140" height="137" x="14" y="510" style="fill:#fff;stroke:#000;stroke-width:1"/><text x="16" y="526" style="font-family:Dialog;font-size:10">&lt;&lt;create&gt;&gt; Point(x: int,y: int)</text><text x="16" y="543" style="font-family:Dialog;font-size:10">getX() : int</text><text x="16" y="560" style="font-family:Dialog;font-size:10">getY() : int</text><text x="16" y="577" style="font-family:Dialog;font-size:10">setX(x: int) : void</text><text x="16" y="594" style="font-family:Dialog;font-size:10">setY(y: int) : void</text><text x="16" y="611" style="font-family:Dialog;font-size:10">move(dx: int,dy: int) : void</text><text x="16" y="628" style="font-family:Dialog;font-size:10">toString() : String</text><text x="16" y="645" style="font-family:Dialog;font-size:10">getShape() : Shape</text><rect width="177" height="158" x="259" y="474" style="fill:#fff;stroke:#fff;stroke-width:1"/><rect width="176" height="157" x="259" y="474" style="fill:#fff;stroke:#000;stroke-width:1"/><line x1="260" x2="436" y1="632" y2="632" style="fill:#1a1a1a;stroke:#1a1a1a;stroke-width:1"/><line x1="436" x2="436" y1="475" y2="631" style="fill:#1a1a1a;stroke:#1a1a1a;stroke-width:1"/><rect width="177" height="21" x="259" y="474" style="fill:#fff;stroke:#fff;stroke-width:1"/><rect width="176" height="20" x="259" y="474" style="fill:#fff;stroke:#000;stroke-width:1"/><text x="337" y="489" style="font-family:Dialog;font-size:10">Line</text><rect width="177" height="138" x="259" y="494" style="fill:#fff;stroke:#fff;stroke-width:1"/><rect width="176" height="137" x="259" y="494" style="fill:#fff;stroke:#000;stroke-width:1"/><text x="261" y="510" style="font-family:Dialog;font-size:10">&lt;&lt;create&gt;&gt; Line(p1: Point,p2: Point)</text><text x="261" y="527" style="font-family:Dialog;font-size:10">getP1() : Point</text><text x="261" y="544" style="font-family:Dialog;font-size:10">getP2() : Point</text><text x="261" y="561" style="font-family:Dialog;font-size:10">move(dx: int,dy: int) : void</text><text x="261" y="578" style="font-family:Dialog;font-size:10">toString() : String</text><text x="261" y="595" style="font-family:Dialog;font-size:10">contains(p: Point2D) : boolean</text><text x="261" y="612" style="font-family:Dialog;font-size:10">getLine2D() : Line2D</text><text x="261" y="629" style="font-family:Dialog;font-size:10">getShape() : Shape</text><rect width="243" height="175" x="492" y="474" style="fill:#fff;stroke:#fff;stroke-width:1"/><rect width="242" height="174" x="492" y="474" style="fill:#fff;stroke:#000;stroke-width:1"/><line x1="493" x2="735" y1="649" y2="649" style="fill:#1a1a1a;stroke:#1a1a1a;stroke-width:1"/><line x1="735" x2="735" y1="475" y2="648" style="fill:#1a1a1a;stroke:#1a1a1a;stroke-width:1"/><rect width="243" height="21" x="492" y="474" style="fill:#fff;stroke:#fff;stroke-width:1"/><rect width="242" height="20" x="492" y="474" style="fill:#fff;stroke:#000;stroke-width:1"/><text x="604" y="489" style="font-family:Dialog;font-size:10">Box</text><rect width="243" height="155" x="492" y="494" style="fill:#fff;stroke:#fff;stroke-width:1"/><rect width="242" height="154" x="492" y="494" style="fill:#fff;stroke:#000;stroke-width:1"/><text x="494" y="510" style="font-family:Dialog;font-size:10">&lt;&lt;create&gt;&gt; Box(x0: int,y0: int,width: int,height: int)</text><text x="494" y="527" style="font-family:Dialog;font-size:10">getP0() : Point</text><text x="494" y="544" style="font-family:Dialog;font-size:10">getP1() : Point</text><text x="494" y="561" style="font-family:Dialog;font-size:10">getP2() : Point</text><text x="494" y="578" style="font-family:Dialog;font-size:10">getP3() : Point</text><text x="494" y="595" style="font-family:Dialog;font-size:10">move(dx: int,dy: int) : void</text><text x="494" y="612" style="font-family:Dialog;font-size:10">checkBoxness() : void</text><text x="494" y="629" style="font-family:Dialog;font-size:10">toString() : String</text><text x="494" y="646" style="font-family:Dialog;font-size:10">getShape() : Shape</text><rect width="178" height="158" x="815" y="474" style="fill:#fff;stroke:#fff;stroke-width:1"/><rect width="177" height="157" x="815" y="474" style="fill:#fff;stroke:#000;stroke-width:1"/><line x1="816" x2="993" y1="632" y2="632" style="fill:#1a1a1a;stroke:#1a1a1a;stroke-width:1"/><line x1="993" x2="993" y1="475" y2="631" style="fill:#1a1a1a;stroke:#1a1a1a;stroke-width:1"/><rect width="178" height="21" x="815" y="474" style="fill:#fff;stroke:#fff;stroke-width:1"/><rect width="177" height="20" x="815" y="474" style="fill:#fff;stroke:#000;stroke-width:1"/><text x="873" y="489" style="font-family:Dialog;font-size:10">SlothfulPoint</text><rect width="178" height="138" x="815" y="494" style="fill:#fff;stroke:#fff;stroke-width:1"/><rect width="177" height="137" x="815" y="494" style="fill:#fff;stroke:#000;stroke-width:1"/><text x="817" y="510" style="font-family:Dialog;font-size:10">&lt;&lt;create&gt;&gt; SlothfulPoint(x: int,y: int)</text><text x="817" y="527" style="font-family:Dialog;font-size:10">getX() : int</text><text x="817" y="544" style="font-family:Dialog;font-size:10">getY() : int</text><text x="817" y="561" style="font-family:Dialog;font-size:10">setX(x: int) : void</text><text x="817" y="578" style="font-family:Dialog;font-size:10">setY(y: int) : void</text><text x="817" y="595" style="font-family:Dialog;font-size:10">move(dx: int,dy: int) : void</text><text x="817" y="612" style="font-family:Dialog;font-size:10">toString() : String</text><text x="817" y="629" style="font-family:Dialog;font-size:10">getShape() : Shape</text><rect width="139" height="108" x="630" y="86" style="fill:#fff;stroke:#fff;stroke-width:1"/><rect width="138" height="107" x="630" y="86" style="fill:#fff;stroke:#000;stroke-width:1"/><line x1="631" x2="769" y1="194" y2="194" style="fill:#1a1a1a;stroke:#1a1a1a;stroke-width:1"/><line x1="769" x2="769" y1="87" y2="193" style="fill:#1a1a1a;stroke:#1a1a1a;stroke-width:1"/><rect width="139" height="21" x="630" y="86" style="fill:#fff;stroke:#fff;stroke-width:1"/><rect width="138" height="20" x="630" y="86" style="fill:#fff;stroke:#000;stroke-width:1"/><text x="690" y="101" style="font-family:Dialog;font-size:10">Log</text><rect width="139" height="18" x="630" y="106" style="fill:#fff;stroke:#fff;stroke-width:1"/><rect width="138" height="17" x="630" y="106" style="fill:#fff;stroke:#000;stroke-width:1"/><line x1="632" x2="678" y1="123" y2="123" style="fill:#000;stroke:#000;stroke-width:1"/><text x="632" y="122" style="font-family:Dialog;font-size:10">data : List</text><rect width="139" height="71" x="630" y="123" style="fill:#fff;stroke:#fff;stroke-width:1"/><rect width="138" height="70" x="630" y="123" style="fill:#fff;stroke:#000;stroke-width:1"/><line x1="632" x2="767" y1="140" y2="140" style="fill:#000;stroke:#000;stroke-width:1"/><text x="632" y="139" style="font-family:Dialog;font-size:10">traceObject(o: Object) : void</text><line x1="632" x2="720" y1="157" y2="157" style="fill:#000;stroke:#000;stroke-width:1"/><text x="632" y="156" style="font-family:Dialog;font-size:10">log(s: String) : void</text><line x1="632" x2="700" y1="174" y2="174" style="fill:#000;stroke:#000;stroke-width:1"/><text x="632" y="173" style="font-family:Dialog;font-size:10">getData() : List</text><line x1="632" x2="691" y1="191" y2="191" style="fill:#000;stroke:#000;stroke-width:1"/><text x="632" y="190" style="font-family:Dialog;font-size:10">clear() : void</text><line x1="98" x2="98" y1="202" y2="197" style="fill:#000;stroke:#000;stroke-width:1"/><line x1="98" x2="98" y1="192" y2="187" style="fill:#000;stroke:#000;stroke-width:1"/><line x1="98" x2="98" y1="182" y2="177" style="fill:#000;stroke:#000;stroke-width:1"/><line x1="98" x2="98" y1="172" y2="167" style="fill:#000;stroke:#000;stroke-width:1"/><line x1="98" x2="98" y1="162" y2="157" style="fill:#000;stroke:#000;stroke-width:1"/><line x1="98" x2="103" y1="154" y2="154" style="fill:#000;stroke:#000;stroke-width:1"/><line x1="108" x2="113" y1="154" y2="154" style="fill:#000;stroke:#000;stroke-width:1"/><line x1="118" x2="123" y1="154" y2="154" style="fill:#000;stroke:#000;stroke-width:1"/><line x1="128" x2="133" y1="154" y2="154" style="fill:#000;stroke:#000;stroke-width:1"/><line x1="138" x2="143" y1="154" y2="154" style="fill:#000;stroke:#000;stroke-width:1"/><line x1="148" x2="153" y1="154" y2="154" style="fill:#000;stroke:#000;stroke-width:1"/><line x1="158" x2="163" y1="154" y2="154" style="fill:#000;stroke:#000;stroke-width:1"/><line x1="168" x2="173" y1="154" y2="154" style="fill:#000;stroke:#000;stroke-width:1"/><line x1="178" x2="183" y1="154" y2="154" style="fill:#000;stroke:#000;stroke-width:1"/><line x1="188" x2="193" y1="154" y2="154" style="fill:#000;stroke:#000;stroke-width:1"/><line x1="198" x2="203" y1="154" y2="154" style="fill:#000;stroke:#000;stroke-width:1"/><line x1="208" x2="213" y1="154" y2="154" style="fill:#000;stroke:#000;stroke-width:1"/><line x1="218" x2="223" y1="154" y2="154" style="fill:#000;stroke:#000;stroke-width:1"/><line x1="228" x2="232" y1="154" y2="154" style="fill:#000;stroke:#000;stroke-width:1"/><line x1="232" x2="232" y1="154" y2="149" style="fill:#000;stroke:#000;stroke-width:1"/><line x1="232" x2="232" y1="144" y2="139" style="fill:#000;stroke:#000;stroke-width:1"/><line x1="232" x2="232" y1="134" y2="129" style="fill:#000;stroke:#000;stroke-width:1"/><line x1="232" x2="232" y1="124" y2="122" style="fill:#000;stroke:#000;stroke-width:1"/><polygon style="fill:#fff;stroke:#fff;stroke-width:1" points="232 123 239 135 225 135"/><polygon style="fill:#fff;stroke:#000;stroke-width:1" points="232 123 239 135 225 135"/><line x1="346" x2="346" y1="202" y2="197" style="fill:#000;stroke:#000;stroke-width:1"/><line x1="346" x2="346" y1="192" y2="187" style="fill:#000;stroke:#000;stroke-width:1"/><line x1="346" x2="346" y1="182" y2="177" style="fill:#000;stroke:#000;stroke-width:1"/><line x1="346" x2="346" y1="172" y2="167" style="fill:#000;stroke:#000;stroke-width:1"/><line x1="346" x2="346" y1="162" y2="157" style="fill:#000;stroke:#000;stroke-width:1"/><line x1="346" x2="341" y1="154" y2="154" style="fill:#000;stroke:#000;stroke-width:1"/><line x1="336" x2="331" y1="154" y2="154" style="fill:#000;stroke:#000;stroke-width:1"/><line x1="326" x2="321" y1="154" y2="154" style="fill:#000;stroke:#000;stroke-width:1"/><line x1="316" x2="311" y1="154" y2="154" style="fill:#000;stroke:#000;stroke-width:1"/><line x1="306" x2="301" y1="154" y2="154" style="fill:#000;stroke:#000;stroke-width:1"/><line x1="296" x2="291" y1="154" y2="154" style="fill:#000;stroke:#000;stroke-width:1"/><line x1="286" x2="281" y1="154" y2="154" style="fill:#000;stroke:#000;stroke-width:1"/><line x1="276" x2="271" y1="154" y2="154" style="fill:#000;stroke:#000;stroke-width:1"/><line x1="266" x2="261" y1="154" y2="154" style="fill:#000;stroke:#000;stroke-width:1"/><line x1="256" x2="251" y1="154" y2="154" style="fill:#000;stroke:#000;stroke-width:1"/><line x1="246" x2="241" y1="154" y2="154" style="fill:#000;stroke:#000;stroke-width:1"/><line x1="236" x2="232" y1="154" y2="154" style="fill:#000;stroke:#000;stroke-width:1"/><line x1="232" x2="232" y1="154" y2="149" style="fill:#000;stroke:#000;stroke-width:1"/><line x1="232" x2="232" y1="144" y2="139" style="fill:#000;stroke:#000;stroke-width:1"/><line x1="232" x2="232" y1="134" y2="129" style="fill:#000;stroke:#000;stroke-width:1"/><line x1="232" x2="232" y1="124" y2="122" style="fill:#000;stroke:#000;stroke-width:1"/><polygon style="fill:#fff;stroke:#fff;stroke-width:1" points="232 123 239 135 225 135"/><polygon style="fill:#fff;stroke:#000;stroke-width:1" points="232 123 239 135 225 135"/><polyline style="fill:none;stroke:#000;stroke-width:1" points="84 490 84 442 88 442 88 361"/><polygon style="fill:#fff;stroke:#fff;stroke-width:1" points="88 362 95 374 81 374"/><polygon style="fill:#fff;stroke:#000;stroke-width:1" points="88 362 95 374 81 374"/><polyline style="fill:none;stroke:#000;stroke-width:1" points="323 474 323 442 88 442 88 361"/><polygon style="fill:#fff;stroke:#fff;stroke-width:1" points="88 362 95 374 81 374"/><polygon style="fill:#fff;stroke:#000;stroke-width:1" points="88 362 95 374 81 374"/><polyline style="fill:none;stroke:#000;stroke-width:1" points="613 474 613 442 88 442 88 361"/><polygon style="fill:#fff;stroke:#fff;stroke-width:1" points="88 362 95 374 81 374"/><polygon style="fill:#fff;stroke:#000;stroke-width:1" points="88 362 95 374 81 374"/><polyline style="fill:none;stroke:#000;stroke-width:1" points="904 474 904 442 88 442 88 361"/><polygon style="fill:#fff;stroke:#fff;stroke-width:1" points="88 362 95 374 81 374"/><polygon style="fill:#fff;stroke:#000;stroke-width:1" points="88 362 95 374 81 374"/><polyline style="fill:none;stroke:#000;stroke-width:1" points="296 202 296 122"/><polygon style="fill:#fff;stroke:#fff;stroke-width:1" points="296 202 291 192 296 182 301 192"/><polygon style="fill:#fff;stroke:#000;stroke-width:1" points="296 202 291 192 296 182 301 192"/><line x1="303" x2="296" y1="135" y2="123" style="fill:#000;stroke:#000;stroke-width:1"/><line x1="289" x2="296" y1="135" y2="123" style="fill:#000;stroke:#000;stroke-width:1"/><text x="279" y="193" style="font-family:Dialog;font-size:10">*</text><polyline style="fill:none;stroke:#000;stroke-width:1" points="155 566 259 566"/><line x1="167" x2="155" y1="559" y2="566" style="fill:#000;stroke:#000;stroke-width:1"/><line x1="167" x2="155" y1="573" y2="566" style="fill:#000;stroke:#000;stroke-width:1"/><polygon style="fill:#fff;stroke:#fff;stroke-width:1" points="258 566 248 571 238 566 248 561"/><polygon style="fill:#fff;stroke:#000;stroke-width:1" points="258 566 248 571 238 566 248 561"/><text x="241" y="557" style="font-family:Dialog;font-size:10">2</text><polyline style="fill:none;stroke:#000;stroke-width:1" points="155 646 492 646"/><line x1="167" x2="155" y1="639" y2="646" style="fill:#000;stroke:#000;stroke-width:1"/><line x1="167" x2="155" y1="653" y2="646" style="fill:#000;stroke:#000;stroke-width:1"/><polygon style="fill:#fff;stroke:#fff;stroke-width:1" points="491 646 481 651 471 646 481 641"/><polygon style="fill:#fff;stroke:#000;stroke-width:1" points="491 646 481 651 471 646 481 641"/><text x="474" y="637" style="font-family:Dialog;font-size:10">4</text></svg>